# xmcd CD database file
#
# Track frame offsets:
#	150
#	15130
#	37715
#	70010
#	90700
#	108835
#	139901
#	161082
#	190345
#
# Disc length: 2704 seconds
#
# Revision: 0
# Processed by: cddbd v1.5.2PL0 Copyright (c) Steve Scherf et al.
# Submitted via: CDex 1.70beta2
#
DISCID=650a8e09
DTITLE=Patti Littlefield and Mark Weaver - Resonance
DYEAR=2008
DGENRE=Jazz
TTITLE0=You're My Thrill
TTITLE1=Small Day Tomorrow
TTITLE2=A Grain of Mustard Seed
TTITLE3=Footprints
TTITLE4=Perfect Blues
TTITLE5=House of the Rising Sun
TTITLE6=Caravan
TTITLE7=Ode to Billie Joe
TTITLE8=Jitterbug Waltz
EXTD=YEAR: 2008
EXTT0=
EXTT1=
EXTT2=
EXTT3=
EXTT4=
EXTT5=
EXTT6=
EXTT7=
EXTT8=
PLAYORDER=
